<svg width="16" height="16" viewBox="0 0 16 16" fill="none" xmlns="http://www.w3.org/2000/svg">
<path d="M11.96 11.164C13.0103 10.1131 13.6004 8.68817 13.6004 7.2024C13.6004 5.71663 13.0103 4.29167 11.96 3.2408C11.4401 2.72054 10.8228 2.30783 10.1433 2.02625C9.46382 1.74466 8.73552 1.59973 8.00001 1.59973C7.2645 1.59973 6.53619 1.74466 5.85672 2.02625C5.17724 2.30783 4.55991 2.72054 4.04001 3.2408C2.98968 4.29167 2.39966 5.71663 2.39966 7.2024C2.39966 8.68817 2.98968 10.1131 4.04001 11.164L5.25681 12.3632L6.89121 13.9512L6.99761 14.0456C7.61761 14.548 8.52561 14.516 9.10961 13.9512L11.0576 12.0552L11.96 11.164ZM8.00001 9.6C7.36349 9.6 6.75304 9.34714 6.30295 8.89706C5.85286 8.44697 5.60001 7.83652 5.60001 7.2C5.60001 6.56348 5.85286 5.95303 6.30295 5.50294C6.75304 5.05286 7.36349 4.8 8.00001 4.8C8.63653 4.8 9.24698 5.05286 9.69706 5.50294C10.1472 5.95303 10.4 6.56348 10.4 7.2C10.4 7.83652 10.1472 8.44697 9.69706 8.89706C9.24698 9.34714 8.63653 9.6 8.00001 9.6Z" fill="#FF0000"/>
</svg>
